<?xml version="1.0" encoding="UTF-8"?>
<svg xmlns="http://www.w3.org/2000/svg" xmlns:xlink="http://www.w3.org/1999/xlink" width="165pt" height="82.499998pt" viewBox="0 0 165 82.499998" version="1.2">
<defs>
<clipPath id="clip1">
  <path d="M 0.496094 0 L 164.503906 0 L 164.503906 82.003906 L 0.496094 82.003906 Z M 0.496094 0 "/>
</clipPath>
<clipPath id="clip2">
  <path d="M 8.699219 31 L 24 31 L 24 49 L 8.699219 49 Z M 8.699219 31 "/>
</clipPath>
<clipPath id="clip3">
  <path d="M 25 36 L 38 36 L 38 53.941406 L 25 53.941406 Z M 25 36 "/>
</clipPath>
<clipPath id="clip4">
  <path d="M 39 36 L 53 36 L 53 53.941406 L 39 53.941406 Z M 39 36 "/>
</clipPath>
<clipPath id="clip5">
  <path d="M 72 36 L 85 36 L 85 53.941406 L 72 53.941406 Z M 72 36 "/>
</clipPath>
<clipPath id="clip6">
  <path d="M 126 27.917969 L 156.300781 27.917969 L 156.300781 50 L 126 50 Z M 126 27.917969 "/>
</clipPath>
</defs>
<g id="surface1">
<g clip-path="url(#clip1)" clip-rule="nonzero">
<path style=" stroke:none;fill-rule:nonzero;fill:rgb(100%,100%,100%);fill-opacity:1;" d="M 0.496094 0 L 164.503906 0 L 164.503906 89.457031 L 0.496094 89.457031 Z M 0.496094 0 "/>
<path style=" stroke:none;fill-rule:nonzero;fill:rgb(100%,100%,100%);fill-opacity:1;" d="M 0.496094 0 L 164.503906 0 L 164.503906 82.003906 L 0.496094 82.003906 Z M 0.496094 0 "/>
<path style=" stroke:none;fill-rule:nonzero;fill:rgb(100%,100%,100%);fill-opacity:1;" d="M 0.496094 0 L 164.503906 0 L 164.503906 82.003906 L 0.496094 82.003906 Z M 0.496094 0 "/>
</g>
<g clip-path="url(#clip2)" clip-rule="nonzero">
<path style=" stroke:none;fill-rule:nonzero;fill:rgb(1.568604%,14.118958%,43.139648%);fill-opacity:1;" d="M 14.328125 32.683594 C 14.394531 32.429688 14.535156 32.226562 14.746094 32.074219 C 14.960938 31.917969 15.199219 31.851562 15.460938 31.871094 L 17.003906 31.871094 C 17.265625 31.847656 17.507812 31.914062 17.722656 32.066406 C 17.9375 32.222656 18.074219 32.425781 18.136719 32.683594 L 23.492188 47.75 C 23.730469 48.445312 23.417969 48.898438 22.675781 48.898438 L 21.5625 48.898438 C 21.296875 48.921875 21.058594 48.855469 20.84375 48.699219 C 20.628906 48.546875 20.492188 48.34375 20.425781 48.085938 L 19.222656 44.554688 L 13.21875 44.554688 L 12.035156 48.0625 C 11.976562 48.324219 11.839844 48.535156 11.625 48.691406 C 11.410156 48.851562 11.167969 48.921875 10.898438 48.898438 L 9.792969 48.898438 C 9.042969 48.898438 8.730469 48.445312 8.976562 47.75 Z M 18.453125 42.015625 L 16.929688 37.457031 C 16.644531 36.496094 16.257812 34.816406 16.257812 34.816406 L 16.207031 34.816406 C 16.207031 34.816406 15.820312 36.496094 15.53125 37.457031 L 13.988281 42.015625 Z M 18.453125 42.015625 "/>
</g>
<g clip-path="url(#clip3)" clip-rule="nonzero">
<path style=" stroke:none;fill-rule:nonzero;fill:rgb(1.568604%,14.118958%,43.139648%);fill-opacity:1;" d="M 25.398438 37.65625 C 25.378906 37.519531 25.394531 37.386719 25.441406 37.253906 C 25.488281 37.125 25.558594 37.007812 25.660156 36.910156 C 25.757812 36.8125 25.871094 36.742188 26.003906 36.695312 C 26.136719 36.648438 26.269531 36.636719 26.410156 36.652344 L 27.179688 36.652344 C 27.832031 36.652344 28.171875 37.007812 28.171875 37.492188 L 28.171875 38.0625 C 28.171875 38.222656 28.164062 38.382812 28.148438 38.542969 L 28.191406 38.542969 C 28.601562 37.847656 29.164062 37.308594 29.871094 36.917969 C 30.582031 36.53125 31.339844 36.351562 32.148438 36.378906 C 35.480469 36.378906 37.625 38.992188 37.625 42.78125 C 37.625 46.671875 35.214844 49.1875 31.980469 49.1875 C 31.265625 49.214844 30.589844 49.0625 29.957031 48.726562 C 29.320312 48.390625 28.816406 47.921875 28.4375 47.316406 L 28.386719 47.316406 C 28.441406 47.664062 28.472656 48.019531 28.476562 48.371094 L 28.476562 52.671875 C 28.496094 52.8125 28.484375 52.949219 28.441406 53.082031 C 28.398438 53.214844 28.324219 53.332031 28.226562 53.429688 C 28.125 53.53125 28.011719 53.601562 27.875 53.648438 C 27.742188 53.691406 27.605469 53.703125 27.464844 53.683594 L 26.410156 53.683594 C 26.269531 53.703125 26.132812 53.6875 26 53.640625 C 25.867188 53.597656 25.753906 53.523438 25.652344 53.425781 C 25.554688 53.328125 25.480469 53.210938 25.4375 53.078125 C 25.390625 52.945312 25.378906 52.8125 25.398438 52.671875 Z M 31.425781 46.621094 C 33.113281 46.621094 34.511719 45.253906 34.511719 42.832031 C 34.511719 40.503906 33.257812 38.992188 31.472656 38.992188 C 29.878906 38.992188 28.363281 40.144531 28.363281 42.855469 C 28.363281 44.75 29.421875 46.621094 31.425781 46.621094 Z M 31.425781 46.621094 "/>
</g>
<g clip-path="url(#clip4)" clip-rule="nonzero">
<path style=" stroke:none;fill-rule:nonzero;fill:rgb(1.568604%,14.118958%,43.139648%);fill-opacity:1;" d="M 39.9375 37.65625 C 39.921875 37.519531 39.9375 37.386719 39.984375 37.253906 C 40.027344 37.125 40.101562 37.007812 40.199219 36.910156 C 40.296875 36.8125 40.414062 36.742188 40.546875 36.695312 C 40.675781 36.648438 40.8125 36.636719 40.949219 36.652344 L 41.722656 36.652344 C 42.375 36.652344 42.710938 37.007812 42.710938 37.492188 L 42.710938 38.0625 C 42.710938 38.222656 42.703125 38.382812 42.6875 38.542969 L 42.757812 38.542969 C 43.167969 37.847656 43.726562 37.308594 44.4375 36.921875 C 45.144531 36.535156 45.902344 36.355469 46.710938 36.382812 C 50.039062 36.382812 52.1875 38.996094 52.1875 42.789062 C 52.1875 46.675781 49.773438 49.191406 46.542969 49.191406 C 45.828125 49.21875 45.152344 49.066406 44.519531 48.730469 C 43.882812 48.394531 43.378906 47.925781 43 47.320312 L 42.949219 47.320312 C 43 47.671875 43.023438 48.023438 43.023438 48.375 L 43.023438 52.671875 C 43.042969 52.8125 43.03125 52.949219 42.984375 53.082031 C 42.941406 53.214844 42.867188 53.332031 42.769531 53.429688 C 42.667969 53.53125 42.550781 53.601562 42.417969 53.648438 C 42.285156 53.691406 42.148438 53.703125 42.007812 53.683594 L 40.949219 53.683594 C 40.8125 53.703125 40.675781 53.6875 40.542969 53.640625 C 40.410156 53.597656 40.292969 53.523438 40.195312 53.425781 C 40.09375 53.328125 40.023438 53.210938 39.976562 53.078125 C 39.933594 52.945312 39.921875 52.8125 39.9375 52.671875 Z M 45.96875 46.621094 C 47.652344 46.621094 49.054688 45.253906 49.054688 42.832031 C 49.054688 40.503906 47.800781 38.992188 46.015625 38.992188 C 44.421875 38.992188 42.90625 40.144531 42.90625 42.855469 C 42.90625 44.75 43.980469 46.621094 45.96875 46.621094 Z M 45.96875 46.621094 "/>
</g>
<path style=" stroke:none;fill-rule:nonzero;fill:rgb(1.568604%,14.118958%,43.139648%);fill-opacity:1;" d="M 54.070312 46.070312 L 54.601562 45.304688 C 54.984375 44.777344 55.417969 44.75 55.996094 45.089844 C 57.027344 45.875 58.1875 46.292969 59.484375 46.335938 C 61.078125 46.335938 62.039062 45.523438 62.039062 44.390625 C 62.039062 41.144531 54.058594 41.824219 54.058594 36.519531 C 54.058594 33.523438 56.566406 31.578125 59.820312 31.578125 C 61.421875 31.570312 62.894531 32 64.234375 32.875 C 64.351562 32.941406 64.453125 33.027344 64.53125 33.136719 C 64.613281 33.242188 64.667969 33.359375 64.699219 33.492188 C 64.726562 33.621094 64.730469 33.753906 64.703125 33.882812 C 64.679688 34.015625 64.625 34.136719 64.550781 34.246094 L 64.117188 35.035156 C 63.753906 35.730469 63.246094 35.632812 62.742188 35.367188 C 61.84375 34.773438 60.855469 34.464844 59.777344 34.433594 C 58.179688 34.433594 57.167969 35.203125 57.167969 36.355469 C 57.167969 39.542969 65.152344 38.730469 65.152344 44.152344 C 65.152344 46.910156 63.078125 49.1875 59.484375 49.1875 C 57.546875 49.167969 55.796875 48.59375 54.226562 47.460938 C 54.109375 47.390625 54.015625 47.296875 53.941406 47.179688 C 53.867188 47.066406 53.824219 46.941406 53.808594 46.804688 C 53.792969 46.667969 53.808594 46.535156 53.855469 46.40625 C 53.902344 46.277344 53.972656 46.164062 54.070312 46.070312 Z M 54.070312 46.070312 "/>
<path style=" stroke:none;fill-rule:nonzero;fill:rgb(1.568604%,14.118958%,43.139648%);fill-opacity:1;" d="M 67.503906 33.597656 L 67.503906 32.875 C 67.484375 32.742188 67.496094 32.605469 67.539062 32.476562 C 67.582031 32.34375 67.652344 32.230469 67.75 32.132812 C 67.84375 32.03125 67.957031 31.960938 68.089844 31.914062 C 68.21875 31.867188 68.351562 31.851562 68.492188 31.867188 L 69.550781 31.867188 C 69.691406 31.851562 69.824219 31.867188 69.957031 31.910156 C 70.089844 31.957031 70.203125 32.027344 70.304688 32.128906 C 70.402344 32.226562 70.472656 32.339844 70.519531 32.472656 C 70.566406 32.605469 70.582031 32.738281 70.5625 32.875 L 70.5625 33.597656 C 70.578125 33.734375 70.5625 33.867188 70.519531 34 C 70.472656 34.128906 70.398438 34.242188 70.300781 34.335938 C 70.199219 34.433594 70.085938 34.503906 69.953125 34.546875 C 69.824219 34.589844 69.6875 34.601562 69.550781 34.582031 L 68.492188 34.582031 C 68.355469 34.597656 68.222656 34.585938 68.09375 34.542969 C 67.960938 34.5 67.847656 34.429688 67.753906 34.332031 C 67.65625 34.238281 67.585938 34.125 67.542969 33.996094 C 67.496094 33.867188 67.484375 33.734375 67.503906 33.597656 Z M 67.503906 37.65625 C 67.484375 37.519531 67.496094 37.386719 67.539062 37.257812 C 67.585938 37.128906 67.652344 37.011719 67.75 36.914062 C 67.847656 36.816406 67.960938 36.746094 68.089844 36.699219 C 68.21875 36.652344 68.355469 36.636719 68.492188 36.652344 L 69.550781 36.652344 C 69.6875 36.636719 69.824219 36.652344 69.953125 36.695312 C 70.085938 36.742188 70.199219 36.816406 70.292969 36.914062 C 70.390625 37.011719 70.460938 37.125 70.503906 37.257812 C 70.550781 37.386719 70.5625 37.519531 70.542969 37.65625 L 70.542969 47.894531 C 70.5625 48.03125 70.550781 48.164062 70.507812 48.296875 C 70.464844 48.425781 70.394531 48.542969 70.296875 48.640625 C 70.203125 48.738281 70.085938 48.8125 69.957031 48.855469 C 69.824219 48.902344 69.691406 48.917969 69.550781 48.898438 L 68.492188 48.898438 C 68.351562 48.917969 68.21875 48.902344 68.085938 48.855469 C 67.957031 48.8125 67.84375 48.738281 67.746094 48.640625 C 67.648438 48.542969 67.578125 48.425781 67.535156 48.292969 C 67.492188 48.164062 67.484375 48.027344 67.503906 47.894531 Z M 67.503906 37.65625 "/>
<g clip-path="url(#clip5)" clip-rule="nonzero">
<path style=" stroke:none;fill-rule:nonzero;fill:rgb(1.568604%,14.118958%,43.139648%);fill-opacity:1;" d="M 75.871094 50.890625 C 76.671875 51.203125 77.5 51.351562 78.355469 51.347656 C 80.238281 51.347656 81.828125 50.554688 81.828125 48.371094 L 81.828125 47.460938 C 81.832031 47.253906 81.847656 47.042969 81.878906 46.835938 L 81.828125 46.835938 C 81.152344 47.988281 80.089844 48.660156 78.449219 48.660156 C 74.859375 48.660156 72.882812 45.820312 72.882812 42.445312 C 72.882812 39.074219 74.761719 36.378906 78.425781 36.378906 C 81.28125 36.378906 82.070312 38.25 82.070312 38.25 L 82.117188 38.25 C 82.101562 38.148438 82.09375 38.042969 82.09375 37.9375 L 82.09375 37.484375 C 82.09375 37.023438 82.433594 36.671875 83.082031 36.671875 L 83.898438 36.671875 C 84.035156 36.65625 84.164062 36.671875 84.296875 36.714844 C 84.425781 36.757812 84.539062 36.828125 84.632812 36.925781 C 84.730469 37.023438 84.800781 37.132812 84.847656 37.261719 C 84.894531 37.390625 84.90625 37.523438 84.894531 37.65625 L 84.894531 48.15625 C 84.894531 52.355469 81.5625 53.941406 78.523438 53.941406 C 77.285156 53.949219 76.085938 53.730469 74.929688 53.289062 C 74.792969 53.257812 74.671875 53.195312 74.566406 53.105469 C 74.460938 53.015625 74.382812 52.90625 74.332031 52.777344 C 74.277344 52.648438 74.257812 52.515625 74.269531 52.378906 C 74.28125 52.242188 74.324219 52.113281 74.398438 51.996094 L 74.582031 51.457031 C 74.859375 50.84375 75.21875 50.675781 75.871094 50.890625 Z M 81.902344 42.527344 C 81.902344 39.71875 80.503906 38.976562 78.910156 38.976562 C 77.007812 38.976562 75.964844 40.320312 75.964844 42.335938 C 75.964844 44.542969 77.074219 46.101562 79.054688 46.101562 C 80.503906 46.09375 81.902344 45.253906 81.902344 42.527344 Z M 81.902344 42.527344 "/>
</g>
<path style=" stroke:none;fill-rule:nonzero;fill:rgb(1.568604%,14.118958%,43.139648%);fill-opacity:1;" d="M 87.929688 37.65625 C 87.910156 37.519531 87.921875 37.386719 87.964844 37.257812 C 88.007812 37.128906 88.078125 37.011719 88.175781 36.914062 C 88.273438 36.816406 88.386719 36.746094 88.515625 36.699219 C 88.644531 36.652344 88.777344 36.636719 88.914062 36.652344 L 89.859375 36.652344 C 89.996094 36.636719 90.128906 36.648438 90.261719 36.695312 C 90.390625 36.742188 90.503906 36.816406 90.601562 36.914062 C 90.695312 37.011719 90.765625 37.125 90.808594 37.257812 C 90.851562 37.386719 90.863281 37.519531 90.847656 37.65625 L 90.847656 38.398438 C 90.84375 38.585938 90.828125 38.769531 90.796875 38.953125 L 90.847656 38.953125 C 91.050781 38.554688 91.308594 38.191406 91.617188 37.867188 C 91.921875 37.542969 92.269531 37.265625 92.65625 37.035156 C 93.042969 36.804688 93.453125 36.632812 93.886719 36.519531 C 94.320312 36.40625 94.761719 36.355469 95.210938 36.363281 C 97.9375 36.363281 99.503906 37.773438 99.503906 41.015625 L 99.503906 47.894531 C 99.523438 48.03125 99.511719 48.167969 99.46875 48.300781 C 99.421875 48.433594 99.351562 48.546875 99.25 48.648438 C 99.152344 48.746094 99.035156 48.820312 98.902344 48.863281 C 98.769531 48.90625 98.632812 48.917969 98.492188 48.898438 L 97.457031 48.898438 C 97.316406 48.917969 97.179688 48.902344 97.046875 48.859375 C 96.914062 48.8125 96.800781 48.742188 96.699219 48.644531 C 96.601562 48.546875 96.527344 48.429688 96.484375 48.296875 C 96.4375 48.164062 96.425781 48.03125 96.445312 47.894531 L 96.445312 41.65625 C 96.445312 40.167969 96.035156 39.160156 94.515625 39.160156 C 92.34375 39.160156 90.96875 40.960938 90.96875 43.167969 L 90.96875 47.894531 C 90.988281 48.03125 90.976562 48.164062 90.933594 48.296875 C 90.890625 48.425781 90.820312 48.542969 90.722656 48.640625 C 90.625 48.738281 90.511719 48.8125 90.378906 48.855469 C 90.25 48.902344 90.113281 48.917969 89.976562 48.898438 L 88.914062 48.898438 C 88.777344 48.917969 88.644531 48.902344 88.511719 48.855469 C 88.382812 48.8125 88.265625 48.738281 88.171875 48.640625 C 88.074219 48.542969 88.003906 48.425781 87.960938 48.292969 C 87.917969 48.164062 87.90625 48.027344 87.929688 47.894531 Z M 87.929688 37.65625 "/>
<path style=" stroke:none;fill-rule:nonzero;fill:rgb(1.568604%,14.118958%,43.139648%);fill-opacity:1;" d="M 108.621094 41.34375 L 109.128906 41.34375 L 109.128906 41.054688 C 109.128906 39.429688 108.09375 38.894531 106.835938 38.894531 C 105.925781 38.917969 105.074219 39.152344 104.28125 39.59375 C 103.679688 39.855469 103.21875 39.757812 102.925781 39.1875 L 102.6875 38.734375 C 102.609375 38.621094 102.558594 38.496094 102.535156 38.363281 C 102.515625 38.226562 102.523438 38.09375 102.5625 37.960938 C 102.601562 37.832031 102.667969 37.714844 102.761719 37.617188 C 102.855469 37.515625 102.964844 37.441406 103.09375 37.390625 C 104.355469 36.726562 105.695312 36.394531 107.121094 36.382812 C 110.304688 36.382812 112.210938 38.15625 112.210938 41.253906 L 112.210938 47.894531 C 112.230469 48.03125 112.21875 48.167969 112.171875 48.300781 C 112.128906 48.433594 112.054688 48.546875 111.957031 48.648438 C 111.855469 48.746094 111.742188 48.820312 111.605469 48.863281 C 111.472656 48.90625 111.335938 48.917969 111.199219 48.898438 L 110.382812 48.898438 C 110.242188 48.917969 110.109375 48.902344 109.976562 48.855469 C 109.847656 48.8125 109.734375 48.738281 109.636719 48.640625 C 109.539062 48.542969 109.46875 48.425781 109.425781 48.292969 C 109.382812 48.164062 109.375 48.027344 109.394531 47.894531 L 109.394531 47.398438 C 109.390625 47.21875 109.40625 47.042969 109.441406 46.871094 L 109.394531 46.871094 C 109.003906 47.570312 108.464844 48.125 107.773438 48.535156 C 107.085938 48.949219 106.339844 49.160156 105.535156 49.171875 C 103.289062 49.171875 101.453125 47.734375 101.453125 45.519531 C 101.433594 41.941406 105.871094 41.34375 108.621094 41.34375 Z M 106.328125 46.863281 C 108.042969 46.863281 109.152344 45.132812 109.152344 43.648438 L 109.152344 43.191406 L 108.644531 43.191406 C 107.101562 43.191406 104.472656 43.433594 104.472656 45.253906 C 104.472656 46.070312 105.101562 46.863281 106.328125 46.863281 Z M 106.328125 46.863281 "/>
<path style=" stroke:none;fill-rule:nonzero;fill:rgb(1.568604%,14.118958%,43.139648%);fill-opacity:1;" d="M 115.011719 32.875 C 114.992188 32.742188 115.003906 32.605469 115.046875 32.476562 C 115.089844 32.34375 115.160156 32.230469 115.257812 32.132812 C 115.355469 32.03125 115.46875 31.960938 115.597656 31.914062 C 115.726562 31.867188 115.863281 31.851562 116 31.867188 L 117.0625 31.867188 C 117.199219 31.851562 117.332031 31.867188 117.464844 31.914062 C 117.59375 31.960938 117.707031 32.03125 117.804688 32.132812 C 117.902344 32.230469 117.972656 32.34375 118.015625 32.476562 C 118.058594 32.605469 118.070312 32.738281 118.050781 32.875 L 118.050781 44.84375 C 118.050781 46.0625 118.558594 46.261719 119.015625 46.308594 C 119.242188 46.320312 119.429688 46.410156 119.574219 46.582031 C 119.722656 46.753906 119.785156 46.949219 119.761719 47.175781 L 119.761719 47.984375 C 119.78125 48.125 119.769531 48.261719 119.726562 48.398438 C 119.683594 48.53125 119.613281 48.652344 119.511719 48.75 C 119.414062 48.851562 119.296875 48.925781 119.164062 48.976562 C 119.027344 49.023438 118.890625 49.039062 118.75 49.019531 C 117.117188 49.019531 115.011719 48.589844 115.011719 45.089844 Z M 115.011719 32.875 "/>
<g clip-path="url(#clip6)" clip-rule="nonzero">
<path style=" stroke:none;fill-rule:nonzero;fill:rgb(1.568604%,14.118958%,43.139648%);fill-opacity:1;" d="M 152.304688 33.007812 C 150.085938 33.007812 148.496094 34.949219 146.863281 37.117188 C 145.847656 32.515625 144.71875 27.917969 141.128906 27.917969 C 137.539062 27.917969 136.410156 32.515625 135.375 37.121094 C 133.746094 34.949219 132.15625 33.007812 129.9375 33.007812 C 128.527344 33.007812 126.136719 33.960938 126.136719 37.539062 L 126.136719 44.03125 C 126.136719 47.542969 128.019531 48.402344 129.148438 48.699219 C 131.101562 49.203125 135.796875 49.675781 141.085938 49.675781 C 146.371094 49.675781 151.070312 49.203125 153.019531 48.699219 C 154.148438 48.402344 156.039062 47.542969 156.039062 44.03125 L 156.039062 37.539062 C 156.039062 33.960938 153.648438 33.007812 152.234375 33.007812 M 141.128906 29.945312 C 143.28125 29.945312 144.101562 34.167969 145.242188 39.230469 C 143.988281 40.765625 142.660156 42.003906 141.128906 42.003906 C 139.597656 42.003906 138.273438 40.765625 137.015625 39.230469 C 138.085938 34.496094 138.910156 29.945312 141.128906 29.945312 M 128.207031 44.054688 L 128.207031 37.558594 C 128.207031 35.300781 129.429688 35.054688 129.96875 35.054688 C 131.535156 35.054688 133.234375 37.652344 134.820312 39.738281 C 133.6875 44.472656 132.488281 47.351562 129.65625 46.761719 C 128.917969 46.5625 128.222656 46.09375 128.222656 44.074219 M 133.78125 47.363281 C 135.035156 46.007812 135.820312 43.894531 136.445312 41.65625 C 137.753906 43.023438 139.269531 44.054688 141.144531 44.054688 C 143.023438 44.054688 144.53125 43.023438 145.847656 41.65625 C 146.453125 43.894531 147.253906 46.007812 148.507812 47.363281 C 146.316406 47.5625 143.679688 47.6875 141.160156 47.6875 C 138.644531 47.6875 135.988281 47.5625 133.796875 47.363281 M 154.082031 44.074219 C 154.082031 46.101562 153.390625 46.5625 152.652344 46.761719 C 149.816406 47.355469 148.621094 44.472656 147.484375 39.738281 C 149.089844 37.652344 150.75 35.054688 152.335938 35.054688 C 152.867188 35.054688 154.101562 35.300781 154.101562 37.558594 Z M 154.082031 44.074219 "/>
</g>
</g>
</svg>
