<?xml version="1.0" encoding="UTF-8"?>
<svg xmlns="http://www.w3.org/2000/svg" xmlns:xlink="http://www.w3.org/1999/xlink" width="165pt" height="82.499998pt" viewBox="0 0 165 82.499998" version="1.2">
<defs>
<clipPath id="clip1">
  <path d="M 0.496094 0 L 164.503906 0 L 164.503906 82.003906 L 0.496094 82.003906 Z M 0.496094 0 "/>
</clipPath>
<clipPath id="clip2">
  <path d="M 7.003906 10.148438 L 158.335938 10.148438 L 158.335938 72.023438 L 7.003906 72.023438 Z M 7.003906 10.148438 "/>
</clipPath>
</defs>
<g id="surface1">
<g clip-path="url(#clip1)" clip-rule="nonzero">
<path style=" stroke:none;fill-rule:nonzero;fill:rgb(100%,100%,100%);fill-opacity:1;" d="M 0.496094 0 L 164.503906 0 L 164.503906 89.457031 L 0.496094 89.457031 Z M 0.496094 0 "/>
<path style=" stroke:none;fill-rule:nonzero;fill:rgb(100%,100%,100%);fill-opacity:1;" d="M 0.496094 0 L 164.503906 0 L 164.503906 82.003906 L 0.496094 82.003906 Z M 0.496094 0 "/>
<path style=" stroke:none;fill-rule:nonzero;fill:rgb(100%,100%,100%);fill-opacity:1;" d="M 0.496094 0 L 164.503906 0 L 164.503906 82.003906 L 0.496094 82.003906 Z M 0.496094 0 "/>
</g>
<g clip-path="url(#clip2)" clip-rule="nonzero">
<path style=" stroke:none;fill-rule:nonzero;fill:rgb(100%,100%,100%);fill-opacity:1;" d="M 7.089844 10.148438 L 158.585938 10.148438 L 158.585938 72.199219 L 7.089844 72.199219 Z M 7.089844 10.148438 "/>
</g>
<path style=" stroke:none;fill-rule:nonzero;fill:rgb(24.308777%,24.308777%,24.308777%);fill-opacity:1;" d="M 65.378906 49.777344 L 65.378906 37.875 L 68.445312 37.875 L 68.445312 38.835938 C 69.417969 38.023438 70.539062 37.617188 71.804688 37.617188 C 72.601562 37.613281 73.359375 37.78125 74.082031 38.117188 C 74.804688 38.449219 75.421875 38.925781 75.933594 39.535156 C 76.71875 40.464844 77.148438 41.671875 77.148438 43.707031 L 77.148438 49.773438 L 73.960938 49.773438 L 73.960938 43.46875 C 73.960938 42.289062 73.691406 41.675781 73.25 41.234375 C 72.746094 40.769531 72.148438 40.550781 71.460938 40.574219 C 70.894531 40.589844 70.355469 40.726562 69.847656 40.984375 C 69.339844 41.242188 68.914062 41.597656 68.566406 42.046875 L 68.566406 49.78125 Z M 65.378906 49.777344 "/>
<path style=" stroke:none;fill-rule:nonzero;fill:rgb(24.308777%,24.308777%,24.308777%);fill-opacity:1;" d="M 90.222656 47.882812 C 89.070312 49.261719 87.179688 50.023438 85.34375 50.023438 C 81.785156 50.023438 79.113281 47.566406 79.113281 43.832031 C 79.113281 40.519531 81.371094 37.621094 84.902344 37.621094 C 88.1875 37.621094 90.515625 40.394531 90.515625 43.703125 C 90.519531 44.007812 90.496094 44.308594 90.445312 44.609375 L 82.203125 44.609375 C 82.375 46.28125 83.726562 47.433594 85.414062 47.433594 C 86.609375 47.402344 87.605469 46.941406 88.410156 46.058594 Z M 87.253906 42.289062 C 87.21875 42.003906 87.132812 41.730469 87 41.472656 C 86.867188 41.21875 86.691406 40.992188 86.472656 40.800781 C 86.257812 40.609375 86.011719 40.460938 85.742188 40.359375 C 85.46875 40.253906 85.191406 40.203125 84.902344 40.203125 C 83.578125 40.203125 82.496094 41.210938 82.351562 42.289062 Z M 87.253906 42.289062 "/>
<path style=" stroke:none;fill-rule:nonzero;fill:rgb(24.308777%,24.308777%,24.308777%);fill-opacity:1;" d="M 92.726562 49.777344 L 92.726562 32.34375 L 95.914062 32.34375 L 95.914062 38.726562 C 96.902344 37.964844 98.023438 37.597656 99.273438 37.632812 C 102.511719 37.632812 105.101562 40.335938 105.101562 43.84375 C 105.113281 45.425781 104.605469 46.816406 103.582031 48.019531 C 103.011719 48.664062 102.335938 49.160156 101.554688 49.511719 C 100.773438 49.863281 99.953125 50.035156 99.09375 50.035156 C 97.839844 50.046875 96.738281 49.640625 95.792969 48.820312 L 95.792969 49.78125 Z M 95.914062 45.601562 C 96.242188 46.066406 96.660156 46.429688 97.167969 46.691406 C 97.675781 46.949219 98.214844 47.078125 98.785156 47.074219 C 100.570312 47.074219 101.921875 45.699219 101.921875 43.832031 C 101.921875 42.117188 100.71875 40.570312 98.855469 40.570312 C 98.277344 40.566406 97.726562 40.695312 97.210938 40.953125 C 96.691406 41.214844 96.257812 41.578125 95.914062 42.042969 Z M 95.914062 45.601562 "/>
<path style=" stroke:none;fill-rule:nonzero;fill:rgb(24.308777%,24.308777%,24.308777%);fill-opacity:1;" d="M 118.59375 37.875 L 118.59375 49.792969 L 115.535156 49.792969 L 115.535156 48.820312 C 114.621094 49.640625 113.550781 50.039062 112.324219 50.023438 C 111.539062 50.027344 110.792969 49.859375 110.082031 49.523438 C 109.375 49.1875 108.769531 48.71875 108.273438 48.109375 C 107.515625 47.175781 107.074219 45.949219 107.074219 44.179688 L 107.074219 37.875 L 110.261719 37.875 L 110.261719 44.308594 C 110.261719 45.390625 110.480469 45.929688 110.851562 46.347656 C 111.339844 46.855469 111.9375 47.097656 112.640625 47.078125 C 113.988281 47.078125 114.96875 46.171875 115.414062 45.601562 L 115.414062 37.875 Z M 118.59375 37.875 "/>
<path style=" stroke:none;fill-rule:nonzero;fill:rgb(24.308777%,24.308777%,24.308777%);fill-opacity:1;" d="M 121.789062 32.34375 L 124.976562 32.34375 L 124.976562 49.777344 L 121.789062 49.777344 Z M 121.789062 32.34375 "/>
<path style=" stroke:none;fill-rule:nonzero;fill:rgb(24.308777%,24.308777%,24.308777%);fill-opacity:1;" d="M 139.570312 49.777344 L 136.503906 49.777344 L 136.503906 48.820312 C 135.550781 49.640625 134.449219 50.042969 133.191406 50.023438 C 132.335938 50.027344 131.515625 49.851562 130.734375 49.5 C 129.949219 49.148438 129.273438 48.652344 128.707031 48.011719 C 127.683594 46.808594 127.175781 45.414062 127.183594 43.835938 C 127.183594 40.324219 129.785156 37.625 133.015625 37.625 C 134.324219 37.609375 135.484375 38.015625 136.5 38.839844 L 136.5 37.875 L 139.566406 37.875 Z M 136.382812 42.042969 C 136.035156 41.578125 135.605469 41.214844 135.085938 40.953125 C 134.566406 40.695312 134.019531 40.566406 133.4375 40.570312 C 131.574219 40.570312 130.371094 42.117188 130.371094 43.832031 C 130.371094 45.699219 131.71875 47.074219 133.511719 47.074219 C 134.082031 47.078125 134.621094 46.949219 135.128906 46.691406 C 135.636719 46.429688 136.054688 46.066406 136.382812 45.601562 Z M 136.382812 42.042969 "/>
<path style=" stroke:none;fill-rule:nonzero;fill:rgb(24.308777%,24.308777%,24.308777%);fill-opacity:1;" d="M 142.757812 49.777344 L 142.757812 32.34375 L 145.945312 32.34375 L 145.945312 38.726562 C 146.9375 37.964844 148.058594 37.597656 149.304688 37.632812 C 152.542969 37.632812 155.136719 40.335938 155.136719 43.84375 C 155.144531 45.425781 154.636719 46.816406 153.617188 48.019531 C 153.046875 48.664062 152.371094 49.160156 151.585938 49.511719 C 150.804688 49.863281 149.984375 50.035156 149.125 50.035156 C 147.875 50.046875 146.773438 49.640625 145.824219 48.820312 L 145.824219 49.78125 Z M 145.945312 45.601562 C 146.277344 46.066406 146.695312 46.429688 147.199219 46.691406 C 147.707031 46.949219 148.246094 47.078125 148.816406 47.074219 C 150.605469 47.074219 151.953125 45.699219 151.953125 43.832031 C 151.953125 42.117188 150.753906 40.570312 148.886719 40.570312 C 148.308594 40.566406 147.761719 40.695312 147.242188 40.953125 C 146.722656 41.214844 146.292969 41.578125 145.945312 42.042969 Z M 145.945312 45.601562 "/>
<path style=" stroke:none;fill-rule:nonzero;fill:rgb(36.468506%,74.508667%,99.21875%);fill-opacity:1;" d="M 10.53125 41.175781 C 10.53125 40.449219 10.566406 39.726562 10.636719 39.003906 C 10.710938 38.285156 10.816406 37.566406 10.957031 36.855469 C 11.097656 36.144531 11.273438 35.441406 11.484375 34.75 C 11.695312 34.054688 11.9375 33.375 12.214844 32.703125 C 12.492188 32.035156 12.800781 31.378906 13.140625 30.742188 C 13.484375 30.101562 13.855469 29.480469 14.257812 28.878906 C 14.660156 28.273438 15.089844 27.695312 15.550781 27.132812 C 16.007812 26.574219 16.496094 26.035156 17.007812 25.523438 C 17.519531 25.011719 18.054688 24.523438 18.613281 24.066406 C 19.175781 23.605469 19.753906 23.175781 20.355469 22.769531 C 20.957031 22.367188 21.578125 21.996094 22.21875 21.65625 C 22.855469 21.3125 23.511719 21.003906 24.179688 20.726562 C 24.847656 20.449219 25.527344 20.203125 26.222656 19.996094 C 26.914062 19.785156 27.617188 19.609375 28.324219 19.464844 C 29.035156 19.324219 29.75 19.21875 30.472656 19.148438 C 31.191406 19.078125 31.914062 19.042969 32.640625 19.042969 C 33.363281 19.042969 34.085938 19.078125 34.804688 19.148438 C 35.527344 19.21875 36.242188 19.324219 36.953125 19.464844 C 37.660156 19.609375 38.363281 19.785156 39.054688 19.996094 C 39.75 20.203125 40.429688 20.449219 41.097656 20.726562 C 41.765625 21.003906 42.421875 21.3125 43.058594 21.65625 C 43.699219 21.996094 44.320312 22.367188 44.921875 22.769531 C 45.523438 23.175781 46.101562 23.605469 46.664062 24.066406 C 47.222656 24.523438 47.757812 25.011719 48.269531 25.523438 C 48.78125 26.035156 49.269531 26.574219 49.726562 27.132812 C 50.1875 27.695312 50.617188 28.273438 51.019531 28.878906 C 51.421875 29.480469 51.792969 30.101562 52.136719 30.742188 C 52.476562 31.378906 52.785156 32.035156 53.0625 32.703125 C 53.339844 33.375 53.582031 34.054688 53.792969 34.75 C 54.003906 35.441406 54.179688 36.144531 54.320312 36.855469 C 54.460938 37.566406 54.566406 38.285156 54.640625 39.003906 C 54.710938 39.726562 54.746094 40.449219 54.746094 41.175781 C 54.746094 41.898438 54.710938 42.621094 54.640625 43.34375 C 54.566406 44.066406 54.460938 44.78125 54.320312 45.492188 C 54.179688 46.203125 54.003906 46.90625 53.792969 47.597656 C 53.582031 48.292969 53.339844 48.972656 53.0625 49.644531 C 52.785156 50.3125 52.476562 50.96875 52.136719 51.609375 C 51.792969 52.246094 51.421875 52.867188 51.019531 53.46875 C 50.617188 54.074219 50.1875 54.65625 49.726562 55.214844 C 49.269531 55.777344 48.78125 56.3125 48.269531 56.824219 C 47.757812 57.335938 47.222656 57.824219 46.664062 58.285156 C 46.101562 58.742188 45.523438 59.175781 44.921875 59.578125 C 44.320312 59.980469 43.699219 60.351562 43.058594 60.695312 C 42.421875 61.035156 41.765625 61.34375 41.097656 61.621094 C 40.429688 61.898438 39.75 62.144531 39.054688 62.355469 C 38.363281 62.566406 37.660156 62.742188 36.953125 62.882812 C 36.242188 63.023438 35.527344 63.128906 34.804688 63.199219 C 34.085938 63.273438 33.363281 63.308594 32.640625 63.308594 C 31.914062 63.308594 31.191406 63.273438 30.472656 63.199219 C 29.75 63.128906 29.035156 63.023438 28.324219 62.882812 C 27.617188 62.742188 26.914062 62.566406 26.222656 62.355469 C 25.527344 62.144531 24.847656 61.898438 24.179688 61.621094 C 23.511719 61.34375 22.855469 61.035156 22.21875 60.695312 C 21.578125 60.351562 20.957031 59.980469 20.355469 59.578125 C 19.753906 59.175781 19.175781 58.742188 18.613281 58.285156 C 18.054688 57.824219 17.519531 57.335938 17.007812 56.824219 C 16.496094 56.3125 16.007812 55.777344 15.550781 55.214844 C 15.089844 54.65625 14.660156 54.074219 14.257812 53.46875 C 13.855469 52.867188 13.484375 52.246094 13.140625 51.609375 C 12.800781 50.96875 12.492188 50.3125 12.214844 49.644531 C 11.9375 48.972656 11.695312 48.292969 11.484375 47.597656 C 11.273438 46.90625 11.097656 46.203125 10.957031 45.492188 C 10.816406 44.78125 10.710938 44.066406 10.636719 43.34375 C 10.566406 42.621094 10.53125 41.898438 10.53125 41.175781 "/>
<path style=" stroke:none;fill-rule:nonzero;fill:rgb(100%,100%,100%);fill-opacity:1;" d="M 28.5 45.25 L 21.074219 52.683594 L 30.929688 50.023438 Z M 28.5 45.25 "/>
<path style=" stroke:none;fill-rule:nonzero;fill:rgb(100%,100%,100%);fill-opacity:0.8;" d="M 23.730469 42.816406 L 21.074219 52.683594 L 28.5 45.25 Z M 23.730469 42.816406 "/>
<path style=" stroke:none;fill-rule:nonzero;fill:rgb(100%,100%,100%);fill-opacity:1;" d="M 44.210938 29.664062 L 31.222656 42.667969 L 36.179688 52.410156 Z M 44.210938 29.664062 "/>
<path style=" stroke:none;fill-rule:nonzero;fill:rgb(100%,100%,100%);fill-opacity:0.8;" d="M 21.488281 37.707031 L 31.222656 42.667969 L 44.210938 29.664062 Z M 21.488281 37.707031 "/>
</g>
</svg>
